<mxfile host="Electron" modified="2023-07-17T13:25:59.235Z" agent="Mozilla/5.0 (Windows NT 6.1; Win64; x64) AppleWebKit/537.36 (KHTML, like Gecko) draw.io/21.1.2 Chrome/106.0.5249.199 Electron/21.4.3 Safari/537.36" etag="oko97KKZYmASuy71jyc8" version="21.1.2" type="device">
  <diagram name="ページ1" id="mtlcL68E5AI3Iho4TW-G">
    <mxGraphModel dx="1418" dy="775" grid="1" gridSize="10" guides="1" tooltips="1" connect="1" arrows="1" fold="1" page="1" pageScale="1" pageWidth="1169" pageHeight="827" math="0" shadow="0">
      <root>
        <mxCell id="0" />
        <mxCell id="1" parent="0" />
        <mxCell id="hTJrPDFdSlXQmdHk-fOA-1" value="" style="rounded=1;whiteSpace=wrap;html=1;arcSize=6;strokeColor=#56517e;fillColor=#D0CEE2;" vertex="1" parent="1">
          <mxGeometry x="321" width="920" height="760" as="geometry" />
        </mxCell>
        <mxCell id="hTJrPDFdSlXQmdHk-fOA-2" value="" style="rounded=0;whiteSpace=wrap;html=1;fillColor=none;strokeColor=none;" vertex="1" parent="1">
          <mxGeometry width="40" height="40" as="geometry" />
        </mxCell>
        <mxCell id="hTJrPDFdSlXQmdHk-fOA-3" value="" style="rounded=0;whiteSpace=wrap;html=1;fillColor=none;strokeColor=none;" vertex="1" parent="1">
          <mxGeometry x="1600" width="40" height="40" as="geometry" />
        </mxCell>
        <mxCell id="hTJrPDFdSlXQmdHk-fOA-4" value="" style="group" vertex="1" connectable="0" parent="1">
          <mxGeometry x="962.5" y="73.5" width="229.5" height="446.5" as="geometry" />
        </mxCell>
        <mxCell id="hTJrPDFdSlXQmdHk-fOA-5" value="" style="shape=parallelogram;perimeter=parallelogramPerimeter;whiteSpace=wrap;html=1;fixedSize=1;flipH=1;rotation=-90;" vertex="1" parent="hTJrPDFdSlXQmdHk-fOA-4">
          <mxGeometry x="-13.5" y="154.5" width="56" height="29" as="geometry" />
        </mxCell>
        <mxCell id="hTJrPDFdSlXQmdHk-fOA-6" value="" style="shape=parallelogram;perimeter=parallelogramPerimeter;whiteSpace=wrap;html=1;fixedSize=1;flipH=1;rotation=-90;" vertex="1" parent="hTJrPDFdSlXQmdHk-fOA-4">
          <mxGeometry x="-13.5" y="190" width="56" height="29" as="geometry" />
        </mxCell>
        <mxCell id="hTJrPDFdSlXQmdHk-fOA-7" value="" style="shape=parallelogram;perimeter=parallelogramPerimeter;whiteSpace=wrap;html=1;fixedSize=1;flipH=1;rotation=-90;" vertex="1" parent="hTJrPDFdSlXQmdHk-fOA-4">
          <mxGeometry x="-13.5" y="226" width="56" height="29" as="geometry" />
        </mxCell>
        <mxCell id="hTJrPDFdSlXQmdHk-fOA-8" value="" style="shape=parallelogram;perimeter=parallelogramPerimeter;whiteSpace=wrap;html=1;fixedSize=1;flipH=1;rotation=-90;" vertex="1" parent="hTJrPDFdSlXQmdHk-fOA-4">
          <mxGeometry x="-13.5" y="261.5" width="56" height="29" as="geometry" />
        </mxCell>
        <mxCell id="hTJrPDFdSlXQmdHk-fOA-9" value="" style="shape=parallelogram;perimeter=parallelogramPerimeter;whiteSpace=wrap;html=1;fixedSize=1;flipH=1;rotation=-90;" vertex="1" parent="hTJrPDFdSlXQmdHk-fOA-4">
          <mxGeometry x="-13.5" y="297" width="56" height="29" as="geometry" />
        </mxCell>
        <mxCell id="hTJrPDFdSlXQmdHk-fOA-10" value="" style="shape=parallelogram;perimeter=parallelogramPerimeter;whiteSpace=wrap;html=1;fixedSize=1;flipH=1;rotation=-90;" vertex="1" parent="hTJrPDFdSlXQmdHk-fOA-4">
          <mxGeometry x="-13.5" y="332.5" width="56" height="29" as="geometry" />
        </mxCell>
        <mxCell id="hTJrPDFdSlXQmdHk-fOA-11" value="" style="shape=parallelogram;perimeter=parallelogramPerimeter;whiteSpace=wrap;html=1;fixedSize=1;flipH=1;rotation=-90;" vertex="1" parent="hTJrPDFdSlXQmdHk-fOA-4">
          <mxGeometry x="-13.5" y="368.5" width="56" height="29" as="geometry" />
        </mxCell>
        <mxCell id="hTJrPDFdSlXQmdHk-fOA-12" value="" style="shape=parallelogram;perimeter=parallelogramPerimeter;whiteSpace=wrap;html=1;fixedSize=1;flipH=1;rotation=-90;" vertex="1" parent="hTJrPDFdSlXQmdHk-fOA-4">
          <mxGeometry x="-13.5" y="404" width="56" height="29" as="geometry" />
        </mxCell>
        <mxCell id="hTJrPDFdSlXQmdHk-fOA-13" value="" style="shape=parallelogram;perimeter=parallelogramPerimeter;whiteSpace=wrap;html=1;fixedSize=1;flipH=1;rotation=-90;" vertex="1" parent="hTJrPDFdSlXQmdHk-fOA-4">
          <mxGeometry x="15" y="134.5" width="56" height="29" as="geometry" />
        </mxCell>
        <mxCell id="hTJrPDFdSlXQmdHk-fOA-14" value="" style="shape=parallelogram;perimeter=parallelogramPerimeter;whiteSpace=wrap;html=1;fixedSize=1;flipH=1;rotation=-90;" vertex="1" parent="hTJrPDFdSlXQmdHk-fOA-4">
          <mxGeometry x="15" y="170" width="56" height="29" as="geometry" />
        </mxCell>
        <mxCell id="hTJrPDFdSlXQmdHk-fOA-15" value="" style="shape=parallelogram;perimeter=parallelogramPerimeter;whiteSpace=wrap;html=1;fixedSize=1;flipH=1;rotation=-90;" vertex="1" parent="hTJrPDFdSlXQmdHk-fOA-4">
          <mxGeometry x="15" y="206" width="56" height="29" as="geometry" />
        </mxCell>
        <mxCell id="hTJrPDFdSlXQmdHk-fOA-16" value="" style="shape=parallelogram;perimeter=parallelogramPerimeter;whiteSpace=wrap;html=1;fixedSize=1;flipH=1;rotation=-90;" vertex="1" parent="hTJrPDFdSlXQmdHk-fOA-4">
          <mxGeometry x="15" y="241.5" width="56" height="29" as="geometry" />
        </mxCell>
        <mxCell id="hTJrPDFdSlXQmdHk-fOA-17" value="" style="shape=parallelogram;perimeter=parallelogramPerimeter;whiteSpace=wrap;html=1;fixedSize=1;flipH=1;rotation=-90;" vertex="1" parent="hTJrPDFdSlXQmdHk-fOA-4">
          <mxGeometry x="15" y="277" width="56" height="29" as="geometry" />
        </mxCell>
        <mxCell id="hTJrPDFdSlXQmdHk-fOA-18" value="" style="shape=parallelogram;perimeter=parallelogramPerimeter;whiteSpace=wrap;html=1;fixedSize=1;flipH=1;rotation=-90;" vertex="1" parent="hTJrPDFdSlXQmdHk-fOA-4">
          <mxGeometry x="15" y="312.5" width="56" height="29" as="geometry" />
        </mxCell>
        <mxCell id="hTJrPDFdSlXQmdHk-fOA-19" value="" style="shape=parallelogram;perimeter=parallelogramPerimeter;whiteSpace=wrap;html=1;fixedSize=1;flipH=1;rotation=-90;" vertex="1" parent="hTJrPDFdSlXQmdHk-fOA-4">
          <mxGeometry x="15" y="348.5" width="56" height="29" as="geometry" />
        </mxCell>
        <mxCell id="hTJrPDFdSlXQmdHk-fOA-20" value="" style="shape=parallelogram;perimeter=parallelogramPerimeter;whiteSpace=wrap;html=1;fixedSize=1;flipH=1;rotation=-90;" vertex="1" parent="hTJrPDFdSlXQmdHk-fOA-4">
          <mxGeometry x="15" y="384" width="56" height="29" as="geometry" />
        </mxCell>
        <mxCell id="hTJrPDFdSlXQmdHk-fOA-21" value="" style="shape=parallelogram;perimeter=parallelogramPerimeter;whiteSpace=wrap;html=1;fixedSize=1;flipH=1;rotation=-90;" vertex="1" parent="hTJrPDFdSlXQmdHk-fOA-4">
          <mxGeometry x="44" y="114" width="56" height="29" as="geometry" />
        </mxCell>
        <mxCell id="hTJrPDFdSlXQmdHk-fOA-22" value="" style="shape=parallelogram;perimeter=parallelogramPerimeter;whiteSpace=wrap;html=1;fixedSize=1;flipH=1;rotation=-90;" vertex="1" parent="hTJrPDFdSlXQmdHk-fOA-4">
          <mxGeometry x="44" y="149.5" width="56" height="29" as="geometry" />
        </mxCell>
        <mxCell id="hTJrPDFdSlXQmdHk-fOA-23" value="" style="shape=parallelogram;perimeter=parallelogramPerimeter;whiteSpace=wrap;html=1;fixedSize=1;flipH=1;rotation=-90;fillColor=default;strokeColor=default;" vertex="1" parent="hTJrPDFdSlXQmdHk-fOA-4">
          <mxGeometry x="44" y="185.5" width="56" height="29" as="geometry" />
        </mxCell>
        <mxCell id="hTJrPDFdSlXQmdHk-fOA-24" value="" style="shape=parallelogram;perimeter=parallelogramPerimeter;whiteSpace=wrap;html=1;fixedSize=1;flipH=1;rotation=-90;" vertex="1" parent="hTJrPDFdSlXQmdHk-fOA-4">
          <mxGeometry x="44" y="221" width="56" height="29" as="geometry" />
        </mxCell>
        <mxCell id="hTJrPDFdSlXQmdHk-fOA-25" value="" style="shape=parallelogram;perimeter=parallelogramPerimeter;whiteSpace=wrap;html=1;fixedSize=1;flipH=1;rotation=-90;" vertex="1" parent="hTJrPDFdSlXQmdHk-fOA-4">
          <mxGeometry x="44" y="256.5" width="56" height="29" as="geometry" />
        </mxCell>
        <mxCell id="hTJrPDFdSlXQmdHk-fOA-26" value="" style="shape=parallelogram;perimeter=parallelogramPerimeter;whiteSpace=wrap;html=1;fixedSize=1;flipH=1;rotation=-90;" vertex="1" parent="hTJrPDFdSlXQmdHk-fOA-4">
          <mxGeometry x="44" y="292" width="56" height="29" as="geometry" />
        </mxCell>
        <mxCell id="hTJrPDFdSlXQmdHk-fOA-27" value="" style="shape=parallelogram;perimeter=parallelogramPerimeter;whiteSpace=wrap;html=1;fixedSize=1;flipH=1;rotation=-90;" vertex="1" parent="hTJrPDFdSlXQmdHk-fOA-4">
          <mxGeometry x="44" y="328" width="56" height="29" as="geometry" />
        </mxCell>
        <mxCell id="hTJrPDFdSlXQmdHk-fOA-28" value="" style="shape=parallelogram;perimeter=parallelogramPerimeter;whiteSpace=wrap;html=1;fixedSize=1;flipH=1;rotation=-90;" vertex="1" parent="hTJrPDFdSlXQmdHk-fOA-4">
          <mxGeometry x="44" y="363.5" width="56" height="29" as="geometry" />
        </mxCell>
        <mxCell id="hTJrPDFdSlXQmdHk-fOA-29" value="" style="shape=parallelogram;perimeter=parallelogramPerimeter;whiteSpace=wrap;html=1;fixedSize=1;flipH=1;rotation=-90;" vertex="1" parent="hTJrPDFdSlXQmdHk-fOA-4">
          <mxGeometry x="72.5" y="94" width="56" height="29" as="geometry" />
        </mxCell>
        <mxCell id="hTJrPDFdSlXQmdHk-fOA-30" value="" style="shape=parallelogram;perimeter=parallelogramPerimeter;whiteSpace=wrap;html=1;fixedSize=1;flipH=1;rotation=-90;" vertex="1" parent="hTJrPDFdSlXQmdHk-fOA-4">
          <mxGeometry x="72.5" y="129.5" width="56" height="29" as="geometry" />
        </mxCell>
        <mxCell id="hTJrPDFdSlXQmdHk-fOA-31" value="" style="shape=parallelogram;perimeter=parallelogramPerimeter;whiteSpace=wrap;html=1;fixedSize=1;flipH=1;rotation=-90;" vertex="1" parent="hTJrPDFdSlXQmdHk-fOA-4">
          <mxGeometry x="72.5" y="165.5" width="56" height="29" as="geometry" />
        </mxCell>
        <mxCell id="hTJrPDFdSlXQmdHk-fOA-32" value="" style="shape=parallelogram;perimeter=parallelogramPerimeter;whiteSpace=wrap;html=1;fixedSize=1;flipH=1;rotation=-90;" vertex="1" parent="hTJrPDFdSlXQmdHk-fOA-4">
          <mxGeometry x="72.5" y="201" width="56" height="29" as="geometry" />
        </mxCell>
        <mxCell id="hTJrPDFdSlXQmdHk-fOA-33" value="" style="shape=parallelogram;perimeter=parallelogramPerimeter;whiteSpace=wrap;html=1;fixedSize=1;flipH=1;rotation=-90;" vertex="1" parent="hTJrPDFdSlXQmdHk-fOA-4">
          <mxGeometry x="72.5" y="236.5" width="56" height="29" as="geometry" />
        </mxCell>
        <mxCell id="hTJrPDFdSlXQmdHk-fOA-34" value="" style="shape=parallelogram;perimeter=parallelogramPerimeter;whiteSpace=wrap;html=1;fixedSize=1;flipH=1;rotation=-90;" vertex="1" parent="hTJrPDFdSlXQmdHk-fOA-4">
          <mxGeometry x="72.5" y="272" width="56" height="29" as="geometry" />
        </mxCell>
        <mxCell id="hTJrPDFdSlXQmdHk-fOA-35" value="" style="shape=parallelogram;perimeter=parallelogramPerimeter;whiteSpace=wrap;html=1;fixedSize=1;flipH=1;rotation=-90;" vertex="1" parent="hTJrPDFdSlXQmdHk-fOA-4">
          <mxGeometry x="72.5" y="308" width="56" height="29" as="geometry" />
        </mxCell>
        <mxCell id="hTJrPDFdSlXQmdHk-fOA-36" value="" style="shape=parallelogram;perimeter=parallelogramPerimeter;whiteSpace=wrap;html=1;fixedSize=1;flipH=1;rotation=-90;" vertex="1" parent="hTJrPDFdSlXQmdHk-fOA-4">
          <mxGeometry x="72.5" y="343.5" width="56" height="29" as="geometry" />
        </mxCell>
        <mxCell id="hTJrPDFdSlXQmdHk-fOA-37" value="" style="shape=parallelogram;perimeter=parallelogramPerimeter;whiteSpace=wrap;html=1;fixedSize=1;flipH=1;rotation=-90;" vertex="1" parent="hTJrPDFdSlXQmdHk-fOA-4">
          <mxGeometry x="101" y="74" width="56" height="29" as="geometry" />
        </mxCell>
        <mxCell id="hTJrPDFdSlXQmdHk-fOA-38" value="" style="shape=parallelogram;perimeter=parallelogramPerimeter;whiteSpace=wrap;html=1;fixedSize=1;flipH=1;rotation=-90;" vertex="1" parent="hTJrPDFdSlXQmdHk-fOA-4">
          <mxGeometry x="101" y="109.5" width="56" height="29" as="geometry" />
        </mxCell>
        <mxCell id="hTJrPDFdSlXQmdHk-fOA-39" value="" style="shape=parallelogram;perimeter=parallelogramPerimeter;whiteSpace=wrap;html=1;fixedSize=1;flipH=1;rotation=-90;" vertex="1" parent="hTJrPDFdSlXQmdHk-fOA-4">
          <mxGeometry x="101" y="145.5" width="56" height="29" as="geometry" />
        </mxCell>
        <mxCell id="hTJrPDFdSlXQmdHk-fOA-40" value="" style="shape=parallelogram;perimeter=parallelogramPerimeter;whiteSpace=wrap;html=1;fixedSize=1;flipH=1;rotation=-90;" vertex="1" parent="hTJrPDFdSlXQmdHk-fOA-4">
          <mxGeometry x="101" y="181" width="56" height="29" as="geometry" />
        </mxCell>
        <mxCell id="hTJrPDFdSlXQmdHk-fOA-41" value="" style="shape=parallelogram;perimeter=parallelogramPerimeter;whiteSpace=wrap;html=1;fixedSize=1;flipH=1;rotation=-90;" vertex="1" parent="hTJrPDFdSlXQmdHk-fOA-4">
          <mxGeometry x="101" y="216.5" width="56" height="29" as="geometry" />
        </mxCell>
        <mxCell id="hTJrPDFdSlXQmdHk-fOA-42" value="" style="shape=parallelogram;perimeter=parallelogramPerimeter;whiteSpace=wrap;html=1;fixedSize=1;flipH=1;rotation=-90;" vertex="1" parent="hTJrPDFdSlXQmdHk-fOA-4">
          <mxGeometry x="101" y="252" width="56" height="29" as="geometry" />
        </mxCell>
        <mxCell id="hTJrPDFdSlXQmdHk-fOA-43" value="" style="shape=parallelogram;perimeter=parallelogramPerimeter;whiteSpace=wrap;html=1;fixedSize=1;flipH=1;rotation=-90;" vertex="1" parent="hTJrPDFdSlXQmdHk-fOA-4">
          <mxGeometry x="101" y="288" width="56" height="29" as="geometry" />
        </mxCell>
        <mxCell id="hTJrPDFdSlXQmdHk-fOA-44" value="" style="shape=parallelogram;perimeter=parallelogramPerimeter;whiteSpace=wrap;html=1;fixedSize=1;flipH=1;rotation=-90;" vertex="1" parent="hTJrPDFdSlXQmdHk-fOA-4">
          <mxGeometry x="101" y="323.5" width="56" height="29" as="geometry" />
        </mxCell>
        <mxCell id="hTJrPDFdSlXQmdHk-fOA-45" value="" style="shape=parallelogram;perimeter=parallelogramPerimeter;whiteSpace=wrap;html=1;fixedSize=1;flipH=1;rotation=-90;" vertex="1" parent="hTJrPDFdSlXQmdHk-fOA-4">
          <mxGeometry x="129.5" y="54" width="56" height="29" as="geometry" />
        </mxCell>
        <mxCell id="hTJrPDFdSlXQmdHk-fOA-46" value="" style="shape=parallelogram;perimeter=parallelogramPerimeter;whiteSpace=wrap;html=1;fixedSize=1;flipH=1;rotation=-90;" vertex="1" parent="hTJrPDFdSlXQmdHk-fOA-4">
          <mxGeometry x="129.5" y="89.5" width="56" height="29" as="geometry" />
        </mxCell>
        <mxCell id="hTJrPDFdSlXQmdHk-fOA-47" value="" style="shape=parallelogram;perimeter=parallelogramPerimeter;whiteSpace=wrap;html=1;fixedSize=1;flipH=1;rotation=-90;fillColor=#f8cecc;strokeColor=#b85450;" vertex="1" parent="hTJrPDFdSlXQmdHk-fOA-4">
          <mxGeometry x="129.5" y="125.5" width="56" height="29" as="geometry" />
        </mxCell>
        <mxCell id="hTJrPDFdSlXQmdHk-fOA-48" value="" style="shape=parallelogram;perimeter=parallelogramPerimeter;whiteSpace=wrap;html=1;fixedSize=1;flipH=1;rotation=-90;" vertex="1" parent="hTJrPDFdSlXQmdHk-fOA-4">
          <mxGeometry x="129.5" y="161" width="56" height="29" as="geometry" />
        </mxCell>
        <mxCell id="hTJrPDFdSlXQmdHk-fOA-49" value="" style="shape=parallelogram;perimeter=parallelogramPerimeter;whiteSpace=wrap;html=1;fixedSize=1;flipH=1;rotation=-90;" vertex="1" parent="hTJrPDFdSlXQmdHk-fOA-4">
          <mxGeometry x="129.5" y="196.5" width="56" height="29" as="geometry" />
        </mxCell>
        <mxCell id="hTJrPDFdSlXQmdHk-fOA-50" value="" style="shape=parallelogram;perimeter=parallelogramPerimeter;whiteSpace=wrap;html=1;fixedSize=1;flipH=1;rotation=-90;" vertex="1" parent="hTJrPDFdSlXQmdHk-fOA-4">
          <mxGeometry x="129.5" y="232" width="56" height="29" as="geometry" />
        </mxCell>
        <mxCell id="hTJrPDFdSlXQmdHk-fOA-51" value="" style="shape=parallelogram;perimeter=parallelogramPerimeter;whiteSpace=wrap;html=1;fixedSize=1;flipH=1;rotation=-90;" vertex="1" parent="hTJrPDFdSlXQmdHk-fOA-4">
          <mxGeometry x="129.5" y="268" width="56" height="29" as="geometry" />
        </mxCell>
        <mxCell id="hTJrPDFdSlXQmdHk-fOA-52" value="" style="shape=parallelogram;perimeter=parallelogramPerimeter;whiteSpace=wrap;html=1;fixedSize=1;flipH=1;rotation=-90;" vertex="1" parent="hTJrPDFdSlXQmdHk-fOA-4">
          <mxGeometry x="129.5" y="303.5" width="56" height="29" as="geometry" />
        </mxCell>
        <mxCell id="hTJrPDFdSlXQmdHk-fOA-53" value="" style="shape=parallelogram;perimeter=parallelogramPerimeter;whiteSpace=wrap;html=1;fixedSize=1;flipH=1;rotation=-90;" vertex="1" parent="hTJrPDFdSlXQmdHk-fOA-4">
          <mxGeometry x="158.5" y="33.5" width="56" height="29" as="geometry" />
        </mxCell>
        <mxCell id="hTJrPDFdSlXQmdHk-fOA-54" value="" style="shape=parallelogram;perimeter=parallelogramPerimeter;whiteSpace=wrap;html=1;fixedSize=1;flipH=1;rotation=-90;" vertex="1" parent="hTJrPDFdSlXQmdHk-fOA-4">
          <mxGeometry x="158.5" y="69" width="56" height="29" as="geometry" />
        </mxCell>
        <mxCell id="hTJrPDFdSlXQmdHk-fOA-55" value="" style="shape=parallelogram;perimeter=parallelogramPerimeter;whiteSpace=wrap;html=1;fixedSize=1;flipH=1;rotation=-90;" vertex="1" parent="hTJrPDFdSlXQmdHk-fOA-4">
          <mxGeometry x="158.5" y="105" width="56" height="29" as="geometry" />
        </mxCell>
        <mxCell id="hTJrPDFdSlXQmdHk-fOA-56" value="" style="shape=parallelogram;perimeter=parallelogramPerimeter;whiteSpace=wrap;html=1;fixedSize=1;flipH=1;rotation=-90;" vertex="1" parent="hTJrPDFdSlXQmdHk-fOA-4">
          <mxGeometry x="158.5" y="140.5" width="56" height="29" as="geometry" />
        </mxCell>
        <mxCell id="hTJrPDFdSlXQmdHk-fOA-57" value="" style="shape=parallelogram;perimeter=parallelogramPerimeter;whiteSpace=wrap;html=1;fixedSize=1;flipH=1;rotation=-90;" vertex="1" parent="hTJrPDFdSlXQmdHk-fOA-4">
          <mxGeometry x="158.5" y="176" width="56" height="29" as="geometry" />
        </mxCell>
        <mxCell id="hTJrPDFdSlXQmdHk-fOA-58" value="" style="shape=parallelogram;perimeter=parallelogramPerimeter;whiteSpace=wrap;html=1;fixedSize=1;flipH=1;rotation=-90;" vertex="1" parent="hTJrPDFdSlXQmdHk-fOA-4">
          <mxGeometry x="158.5" y="211.5" width="56" height="29" as="geometry" />
        </mxCell>
        <mxCell id="hTJrPDFdSlXQmdHk-fOA-59" value="" style="shape=parallelogram;perimeter=parallelogramPerimeter;whiteSpace=wrap;html=1;fixedSize=1;flipH=1;rotation=-90;" vertex="1" parent="hTJrPDFdSlXQmdHk-fOA-4">
          <mxGeometry x="158.5" y="247.5" width="56" height="29" as="geometry" />
        </mxCell>
        <mxCell id="hTJrPDFdSlXQmdHk-fOA-60" value="" style="shape=parallelogram;perimeter=parallelogramPerimeter;whiteSpace=wrap;html=1;fixedSize=1;flipH=1;rotation=-90;" vertex="1" parent="hTJrPDFdSlXQmdHk-fOA-4">
          <mxGeometry x="158.5" y="283" width="56" height="29" as="geometry" />
        </mxCell>
        <mxCell id="hTJrPDFdSlXQmdHk-fOA-61" value="" style="shape=parallelogram;perimeter=parallelogramPerimeter;whiteSpace=wrap;html=1;fixedSize=1;flipH=1;rotation=-90;" vertex="1" parent="hTJrPDFdSlXQmdHk-fOA-4">
          <mxGeometry x="187" y="13.5" width="56" height="29" as="geometry" />
        </mxCell>
        <mxCell id="hTJrPDFdSlXQmdHk-fOA-62" value="" style="shape=parallelogram;perimeter=parallelogramPerimeter;whiteSpace=wrap;html=1;fixedSize=1;flipH=1;rotation=-90;" vertex="1" parent="hTJrPDFdSlXQmdHk-fOA-4">
          <mxGeometry x="187" y="49" width="56" height="29" as="geometry" />
        </mxCell>
        <mxCell id="hTJrPDFdSlXQmdHk-fOA-63" value="" style="shape=parallelogram;perimeter=parallelogramPerimeter;whiteSpace=wrap;html=1;fixedSize=1;flipH=1;rotation=-90;" vertex="1" parent="hTJrPDFdSlXQmdHk-fOA-4">
          <mxGeometry x="187" y="85" width="56" height="29" as="geometry" />
        </mxCell>
        <mxCell id="hTJrPDFdSlXQmdHk-fOA-64" value="" style="shape=parallelogram;perimeter=parallelogramPerimeter;whiteSpace=wrap;html=1;fixedSize=1;flipH=1;rotation=-90;" vertex="1" parent="hTJrPDFdSlXQmdHk-fOA-4">
          <mxGeometry x="187" y="120.5" width="56" height="29" as="geometry" />
        </mxCell>
        <mxCell id="hTJrPDFdSlXQmdHk-fOA-65" value="" style="shape=parallelogram;perimeter=parallelogramPerimeter;whiteSpace=wrap;html=1;fixedSize=1;flipH=1;rotation=-90;" vertex="1" parent="hTJrPDFdSlXQmdHk-fOA-4">
          <mxGeometry x="187" y="156" width="56" height="29" as="geometry" />
        </mxCell>
        <mxCell id="hTJrPDFdSlXQmdHk-fOA-66" value="" style="shape=parallelogram;perimeter=parallelogramPerimeter;whiteSpace=wrap;html=1;fixedSize=1;flipH=1;rotation=-90;" vertex="1" parent="hTJrPDFdSlXQmdHk-fOA-4">
          <mxGeometry x="187" y="191.5" width="56" height="29" as="geometry" />
        </mxCell>
        <mxCell id="hTJrPDFdSlXQmdHk-fOA-67" value="" style="shape=parallelogram;perimeter=parallelogramPerimeter;whiteSpace=wrap;html=1;fixedSize=1;flipH=1;rotation=-90;" vertex="1" parent="hTJrPDFdSlXQmdHk-fOA-4">
          <mxGeometry x="187" y="227.5" width="56" height="29" as="geometry" />
        </mxCell>
        <mxCell id="hTJrPDFdSlXQmdHk-fOA-68" value="" style="shape=parallelogram;perimeter=parallelogramPerimeter;whiteSpace=wrap;html=1;fixedSize=1;flipH=1;rotation=-90;" vertex="1" parent="hTJrPDFdSlXQmdHk-fOA-4">
          <mxGeometry x="187" y="263" width="56" height="29" as="geometry" />
        </mxCell>
        <mxCell id="hTJrPDFdSlXQmdHk-fOA-69" value="&lt;span style=&quot;font-size: 18px;&quot;&gt;Destination&lt;/span&gt;" style="rounded=0;whiteSpace=wrap;html=1;fontStyle=1;fontSize=18;strokeColor=none;fillColor=none;" vertex="1" parent="hTJrPDFdSlXQmdHk-fOA-4">
          <mxGeometry x="40.5" width="120" height="40" as="geometry" />
        </mxCell>
        <mxCell id="hTJrPDFdSlXQmdHk-fOA-70" value="" style="group" vertex="1" connectable="0" parent="1">
          <mxGeometry x="402.5" y="73.5" width="229.5" height="446.5" as="geometry" />
        </mxCell>
        <mxCell id="hTJrPDFdSlXQmdHk-fOA-71" value="" style="shape=parallelogram;perimeter=parallelogramPerimeter;whiteSpace=wrap;html=1;fixedSize=1;flipH=1;rotation=-90;" vertex="1" parent="hTJrPDFdSlXQmdHk-fOA-70">
          <mxGeometry x="-13.5" y="154.5" width="56" height="29" as="geometry" />
        </mxCell>
        <mxCell id="hTJrPDFdSlXQmdHk-fOA-72" value="" style="shape=parallelogram;perimeter=parallelogramPerimeter;whiteSpace=wrap;html=1;fixedSize=1;flipH=1;rotation=-90;" vertex="1" parent="hTJrPDFdSlXQmdHk-fOA-70">
          <mxGeometry x="-13.5" y="190" width="56" height="29" as="geometry" />
        </mxCell>
        <mxCell id="hTJrPDFdSlXQmdHk-fOA-73" value="" style="shape=parallelogram;perimeter=parallelogramPerimeter;whiteSpace=wrap;html=1;fixedSize=1;flipH=1;rotation=-90;" vertex="1" parent="hTJrPDFdSlXQmdHk-fOA-70">
          <mxGeometry x="-13.5" y="226" width="56" height="29" as="geometry" />
        </mxCell>
        <mxCell id="hTJrPDFdSlXQmdHk-fOA-74" value="" style="shape=parallelogram;perimeter=parallelogramPerimeter;whiteSpace=wrap;html=1;fixedSize=1;flipH=1;rotation=-90;" vertex="1" parent="hTJrPDFdSlXQmdHk-fOA-70">
          <mxGeometry x="-13.5" y="261.5" width="56" height="29" as="geometry" />
        </mxCell>
        <mxCell id="hTJrPDFdSlXQmdHk-fOA-75" value="" style="shape=parallelogram;perimeter=parallelogramPerimeter;whiteSpace=wrap;html=1;fixedSize=1;flipH=1;rotation=-90;" vertex="1" parent="hTJrPDFdSlXQmdHk-fOA-70">
          <mxGeometry x="-13.5" y="297" width="56" height="29" as="geometry" />
        </mxCell>
        <mxCell id="hTJrPDFdSlXQmdHk-fOA-76" value="" style="shape=parallelogram;perimeter=parallelogramPerimeter;whiteSpace=wrap;html=1;fixedSize=1;flipH=1;rotation=-90;" vertex="1" parent="hTJrPDFdSlXQmdHk-fOA-70">
          <mxGeometry x="-13.5" y="332.5" width="56" height="29" as="geometry" />
        </mxCell>
        <mxCell id="hTJrPDFdSlXQmdHk-fOA-77" value="" style="shape=parallelogram;perimeter=parallelogramPerimeter;whiteSpace=wrap;html=1;fixedSize=1;flipH=1;rotation=-90;" vertex="1" parent="hTJrPDFdSlXQmdHk-fOA-70">
          <mxGeometry x="-13.5" y="368.5" width="56" height="29" as="geometry" />
        </mxCell>
        <mxCell id="hTJrPDFdSlXQmdHk-fOA-78" value="" style="shape=parallelogram;perimeter=parallelogramPerimeter;whiteSpace=wrap;html=1;fixedSize=1;flipH=1;rotation=-90;" vertex="1" parent="hTJrPDFdSlXQmdHk-fOA-70">
          <mxGeometry x="-13.5" y="404" width="56" height="29" as="geometry" />
        </mxCell>
        <mxCell id="hTJrPDFdSlXQmdHk-fOA-79" value="" style="shape=parallelogram;perimeter=parallelogramPerimeter;whiteSpace=wrap;html=1;fixedSize=1;flipH=1;rotation=-90;" vertex="1" parent="hTJrPDFdSlXQmdHk-fOA-70">
          <mxGeometry x="15" y="134.5" width="56" height="29" as="geometry" />
        </mxCell>
        <mxCell id="hTJrPDFdSlXQmdHk-fOA-80" value="" style="shape=parallelogram;perimeter=parallelogramPerimeter;whiteSpace=wrap;html=1;fixedSize=1;flipH=1;rotation=-90;" vertex="1" parent="hTJrPDFdSlXQmdHk-fOA-70">
          <mxGeometry x="15" y="170" width="56" height="29" as="geometry" />
        </mxCell>
        <mxCell id="hTJrPDFdSlXQmdHk-fOA-81" value="" style="shape=parallelogram;perimeter=parallelogramPerimeter;whiteSpace=wrap;html=1;fixedSize=1;flipH=1;rotation=-90;" vertex="1" parent="hTJrPDFdSlXQmdHk-fOA-70">
          <mxGeometry x="15" y="206" width="56" height="29" as="geometry" />
        </mxCell>
        <mxCell id="hTJrPDFdSlXQmdHk-fOA-82" value="" style="shape=parallelogram;perimeter=parallelogramPerimeter;whiteSpace=wrap;html=1;fixedSize=1;flipH=1;rotation=-90;" vertex="1" parent="hTJrPDFdSlXQmdHk-fOA-70">
          <mxGeometry x="15" y="241.5" width="56" height="29" as="geometry" />
        </mxCell>
        <mxCell id="hTJrPDFdSlXQmdHk-fOA-83" value="" style="shape=parallelogram;perimeter=parallelogramPerimeter;whiteSpace=wrap;html=1;fixedSize=1;flipH=1;rotation=-90;" vertex="1" parent="hTJrPDFdSlXQmdHk-fOA-70">
          <mxGeometry x="15" y="277" width="56" height="29" as="geometry" />
        </mxCell>
        <mxCell id="hTJrPDFdSlXQmdHk-fOA-84" value="" style="shape=parallelogram;perimeter=parallelogramPerimeter;whiteSpace=wrap;html=1;fixedSize=1;flipH=1;rotation=-90;" vertex="1" parent="hTJrPDFdSlXQmdHk-fOA-70">
          <mxGeometry x="15" y="312.5" width="56" height="29" as="geometry" />
        </mxCell>
        <mxCell id="hTJrPDFdSlXQmdHk-fOA-85" value="" style="shape=parallelogram;perimeter=parallelogramPerimeter;whiteSpace=wrap;html=1;fixedSize=1;flipH=1;rotation=-90;" vertex="1" parent="hTJrPDFdSlXQmdHk-fOA-70">
          <mxGeometry x="15" y="348.5" width="56" height="29" as="geometry" />
        </mxCell>
        <mxCell id="hTJrPDFdSlXQmdHk-fOA-86" value="" style="shape=parallelogram;perimeter=parallelogramPerimeter;whiteSpace=wrap;html=1;fixedSize=1;flipH=1;rotation=-90;" vertex="1" parent="hTJrPDFdSlXQmdHk-fOA-70">
          <mxGeometry x="15" y="384" width="56" height="29" as="geometry" />
        </mxCell>
        <mxCell id="hTJrPDFdSlXQmdHk-fOA-87" value="" style="shape=parallelogram;perimeter=parallelogramPerimeter;whiteSpace=wrap;html=1;fixedSize=1;flipH=1;rotation=-90;" vertex="1" parent="hTJrPDFdSlXQmdHk-fOA-70">
          <mxGeometry x="44" y="114" width="56" height="29" as="geometry" />
        </mxCell>
        <mxCell id="hTJrPDFdSlXQmdHk-fOA-88" value="" style="shape=parallelogram;perimeter=parallelogramPerimeter;whiteSpace=wrap;html=1;fixedSize=1;flipH=1;rotation=-90;" vertex="1" parent="hTJrPDFdSlXQmdHk-fOA-70">
          <mxGeometry x="44" y="149.5" width="56" height="29" as="geometry" />
        </mxCell>
        <mxCell id="hTJrPDFdSlXQmdHk-fOA-89" value="" style="shape=parallelogram;perimeter=parallelogramPerimeter;whiteSpace=wrap;html=1;fixedSize=1;flipH=1;rotation=-90;fillColor=#d5e8d4;strokeColor=#82b366;" vertex="1" parent="hTJrPDFdSlXQmdHk-fOA-70">
          <mxGeometry x="44" y="185.5" width="56" height="29" as="geometry" />
        </mxCell>
        <mxCell id="hTJrPDFdSlXQmdHk-fOA-90" value="" style="shape=parallelogram;perimeter=parallelogramPerimeter;whiteSpace=wrap;html=1;fixedSize=1;flipH=1;rotation=-90;" vertex="1" parent="hTJrPDFdSlXQmdHk-fOA-70">
          <mxGeometry x="44" y="221" width="56" height="29" as="geometry" />
        </mxCell>
        <mxCell id="hTJrPDFdSlXQmdHk-fOA-91" value="" style="shape=parallelogram;perimeter=parallelogramPerimeter;whiteSpace=wrap;html=1;fixedSize=1;flipH=1;rotation=-90;" vertex="1" parent="hTJrPDFdSlXQmdHk-fOA-70">
          <mxGeometry x="44" y="256.5" width="56" height="29" as="geometry" />
        </mxCell>
        <mxCell id="hTJrPDFdSlXQmdHk-fOA-92" value="" style="shape=parallelogram;perimeter=parallelogramPerimeter;whiteSpace=wrap;html=1;fixedSize=1;flipH=1;rotation=-90;" vertex="1" parent="hTJrPDFdSlXQmdHk-fOA-70">
          <mxGeometry x="44" y="292" width="56" height="29" as="geometry" />
        </mxCell>
        <mxCell id="hTJrPDFdSlXQmdHk-fOA-93" value="" style="shape=parallelogram;perimeter=parallelogramPerimeter;whiteSpace=wrap;html=1;fixedSize=1;flipH=1;rotation=-90;" vertex="1" parent="hTJrPDFdSlXQmdHk-fOA-70">
          <mxGeometry x="44" y="328" width="56" height="29" as="geometry" />
        </mxCell>
        <mxCell id="hTJrPDFdSlXQmdHk-fOA-94" value="" style="shape=parallelogram;perimeter=parallelogramPerimeter;whiteSpace=wrap;html=1;fixedSize=1;flipH=1;rotation=-90;" vertex="1" parent="hTJrPDFdSlXQmdHk-fOA-70">
          <mxGeometry x="44" y="363.5" width="56" height="29" as="geometry" />
        </mxCell>
        <mxCell id="hTJrPDFdSlXQmdHk-fOA-95" value="" style="shape=parallelogram;perimeter=parallelogramPerimeter;whiteSpace=wrap;html=1;fixedSize=1;flipH=1;rotation=-90;" vertex="1" parent="hTJrPDFdSlXQmdHk-fOA-70">
          <mxGeometry x="72.5" y="94" width="56" height="29" as="geometry" />
        </mxCell>
        <mxCell id="hTJrPDFdSlXQmdHk-fOA-96" value="" style="shape=parallelogram;perimeter=parallelogramPerimeter;whiteSpace=wrap;html=1;fixedSize=1;flipH=1;rotation=-90;" vertex="1" parent="hTJrPDFdSlXQmdHk-fOA-70">
          <mxGeometry x="72.5" y="129.5" width="56" height="29" as="geometry" />
        </mxCell>
        <mxCell id="hTJrPDFdSlXQmdHk-fOA-97" value="" style="shape=parallelogram;perimeter=parallelogramPerimeter;whiteSpace=wrap;html=1;fixedSize=1;flipH=1;rotation=-90;" vertex="1" parent="hTJrPDFdSlXQmdHk-fOA-70">
          <mxGeometry x="72.5" y="165.5" width="56" height="29" as="geometry" />
        </mxCell>
        <mxCell id="hTJrPDFdSlXQmdHk-fOA-98" value="" style="shape=parallelogram;perimeter=parallelogramPerimeter;whiteSpace=wrap;html=1;fixedSize=1;flipH=1;rotation=-90;" vertex="1" parent="hTJrPDFdSlXQmdHk-fOA-70">
          <mxGeometry x="72.5" y="201" width="56" height="29" as="geometry" />
        </mxCell>
        <mxCell id="hTJrPDFdSlXQmdHk-fOA-99" value="" style="shape=parallelogram;perimeter=parallelogramPerimeter;whiteSpace=wrap;html=1;fixedSize=1;flipH=1;rotation=-90;" vertex="1" parent="hTJrPDFdSlXQmdHk-fOA-70">
          <mxGeometry x="72.5" y="236.5" width="56" height="29" as="geometry" />
        </mxCell>
        <mxCell id="hTJrPDFdSlXQmdHk-fOA-100" value="" style="shape=parallelogram;perimeter=parallelogramPerimeter;whiteSpace=wrap;html=1;fixedSize=1;flipH=1;rotation=-90;" vertex="1" parent="hTJrPDFdSlXQmdHk-fOA-70">
          <mxGeometry x="72.5" y="272" width="56" height="29" as="geometry" />
        </mxCell>
        <mxCell id="hTJrPDFdSlXQmdHk-fOA-101" value="" style="shape=parallelogram;perimeter=parallelogramPerimeter;whiteSpace=wrap;html=1;fixedSize=1;flipH=1;rotation=-90;" vertex="1" parent="hTJrPDFdSlXQmdHk-fOA-70">
          <mxGeometry x="72.5" y="308" width="56" height="29" as="geometry" />
        </mxCell>
        <mxCell id="hTJrPDFdSlXQmdHk-fOA-102" value="" style="shape=parallelogram;perimeter=parallelogramPerimeter;whiteSpace=wrap;html=1;fixedSize=1;flipH=1;rotation=-90;" vertex="1" parent="hTJrPDFdSlXQmdHk-fOA-70">
          <mxGeometry x="72.5" y="343.5" width="56" height="29" as="geometry" />
        </mxCell>
        <mxCell id="hTJrPDFdSlXQmdHk-fOA-103" value="" style="shape=parallelogram;perimeter=parallelogramPerimeter;whiteSpace=wrap;html=1;fixedSize=1;flipH=1;rotation=-90;" vertex="1" parent="hTJrPDFdSlXQmdHk-fOA-70">
          <mxGeometry x="101" y="74" width="56" height="29" as="geometry" />
        </mxCell>
        <mxCell id="hTJrPDFdSlXQmdHk-fOA-104" value="" style="shape=parallelogram;perimeter=parallelogramPerimeter;whiteSpace=wrap;html=1;fixedSize=1;flipH=1;rotation=-90;" vertex="1" parent="hTJrPDFdSlXQmdHk-fOA-70">
          <mxGeometry x="101" y="109.5" width="56" height="29" as="geometry" />
        </mxCell>
        <mxCell id="hTJrPDFdSlXQmdHk-fOA-105" value="" style="shape=parallelogram;perimeter=parallelogramPerimeter;whiteSpace=wrap;html=1;fixedSize=1;flipH=1;rotation=-90;" vertex="1" parent="hTJrPDFdSlXQmdHk-fOA-70">
          <mxGeometry x="101" y="145.5" width="56" height="29" as="geometry" />
        </mxCell>
        <mxCell id="hTJrPDFdSlXQmdHk-fOA-106" value="" style="shape=parallelogram;perimeter=parallelogramPerimeter;whiteSpace=wrap;html=1;fixedSize=1;flipH=1;rotation=-90;" vertex="1" parent="hTJrPDFdSlXQmdHk-fOA-70">
          <mxGeometry x="101" y="181" width="56" height="29" as="geometry" />
        </mxCell>
        <mxCell id="hTJrPDFdSlXQmdHk-fOA-107" value="" style="shape=parallelogram;perimeter=parallelogramPerimeter;whiteSpace=wrap;html=1;fixedSize=1;flipH=1;rotation=-90;" vertex="1" parent="hTJrPDFdSlXQmdHk-fOA-70">
          <mxGeometry x="101" y="216.5" width="56" height="29" as="geometry" />
        </mxCell>
        <mxCell id="hTJrPDFdSlXQmdHk-fOA-108" value="" style="shape=parallelogram;perimeter=parallelogramPerimeter;whiteSpace=wrap;html=1;fixedSize=1;flipH=1;rotation=-90;" vertex="1" parent="hTJrPDFdSlXQmdHk-fOA-70">
          <mxGeometry x="101" y="252" width="56" height="29" as="geometry" />
        </mxCell>
        <mxCell id="hTJrPDFdSlXQmdHk-fOA-109" value="" style="shape=parallelogram;perimeter=parallelogramPerimeter;whiteSpace=wrap;html=1;fixedSize=1;flipH=1;rotation=-90;" vertex="1" parent="hTJrPDFdSlXQmdHk-fOA-70">
          <mxGeometry x="101" y="288" width="56" height="29" as="geometry" />
        </mxCell>
        <mxCell id="hTJrPDFdSlXQmdHk-fOA-110" value="" style="shape=parallelogram;perimeter=parallelogramPerimeter;whiteSpace=wrap;html=1;fixedSize=1;flipH=1;rotation=-90;" vertex="1" parent="hTJrPDFdSlXQmdHk-fOA-70">
          <mxGeometry x="101" y="323.5" width="56" height="29" as="geometry" />
        </mxCell>
        <mxCell id="hTJrPDFdSlXQmdHk-fOA-111" value="" style="shape=parallelogram;perimeter=parallelogramPerimeter;whiteSpace=wrap;html=1;fixedSize=1;flipH=1;rotation=-90;" vertex="1" parent="hTJrPDFdSlXQmdHk-fOA-70">
          <mxGeometry x="129.5" y="54" width="56" height="29" as="geometry" />
        </mxCell>
        <mxCell id="hTJrPDFdSlXQmdHk-fOA-112" value="" style="shape=parallelogram;perimeter=parallelogramPerimeter;whiteSpace=wrap;html=1;fixedSize=1;flipH=1;rotation=-90;" vertex="1" parent="hTJrPDFdSlXQmdHk-fOA-70">
          <mxGeometry x="129.5" y="89.5" width="56" height="29" as="geometry" />
        </mxCell>
        <mxCell id="hTJrPDFdSlXQmdHk-fOA-113" value="" style="shape=parallelogram;perimeter=parallelogramPerimeter;whiteSpace=wrap;html=1;fixedSize=1;flipH=1;rotation=-90;fillColor=#f5f5f5;strokeColor=#666666;fontColor=#333333;" vertex="1" parent="hTJrPDFdSlXQmdHk-fOA-70">
          <mxGeometry x="129.5" y="125.5" width="56" height="29" as="geometry" />
        </mxCell>
        <mxCell id="hTJrPDFdSlXQmdHk-fOA-114" value="" style="shape=parallelogram;perimeter=parallelogramPerimeter;whiteSpace=wrap;html=1;fixedSize=1;flipH=1;rotation=-90;" vertex="1" parent="hTJrPDFdSlXQmdHk-fOA-70">
          <mxGeometry x="129.5" y="161" width="56" height="29" as="geometry" />
        </mxCell>
        <mxCell id="hTJrPDFdSlXQmdHk-fOA-115" value="" style="shape=parallelogram;perimeter=parallelogramPerimeter;whiteSpace=wrap;html=1;fixedSize=1;flipH=1;rotation=-90;" vertex="1" parent="hTJrPDFdSlXQmdHk-fOA-70">
          <mxGeometry x="129.5" y="196.5" width="56" height="29" as="geometry" />
        </mxCell>
        <mxCell id="hTJrPDFdSlXQmdHk-fOA-116" value="" style="shape=parallelogram;perimeter=parallelogramPerimeter;whiteSpace=wrap;html=1;fixedSize=1;flipH=1;rotation=-90;" vertex="1" parent="hTJrPDFdSlXQmdHk-fOA-70">
          <mxGeometry x="129.5" y="232" width="56" height="29" as="geometry" />
        </mxCell>
        <mxCell id="hTJrPDFdSlXQmdHk-fOA-117" value="" style="shape=parallelogram;perimeter=parallelogramPerimeter;whiteSpace=wrap;html=1;fixedSize=1;flipH=1;rotation=-90;" vertex="1" parent="hTJrPDFdSlXQmdHk-fOA-70">
          <mxGeometry x="129.5" y="268" width="56" height="29" as="geometry" />
        </mxCell>
        <mxCell id="hTJrPDFdSlXQmdHk-fOA-118" value="" style="shape=parallelogram;perimeter=parallelogramPerimeter;whiteSpace=wrap;html=1;fixedSize=1;flipH=1;rotation=-90;" vertex="1" parent="hTJrPDFdSlXQmdHk-fOA-70">
          <mxGeometry x="129.5" y="303.5" width="56" height="29" as="geometry" />
        </mxCell>
        <mxCell id="hTJrPDFdSlXQmdHk-fOA-119" value="" style="shape=parallelogram;perimeter=parallelogramPerimeter;whiteSpace=wrap;html=1;fixedSize=1;flipH=1;rotation=-90;" vertex="1" parent="hTJrPDFdSlXQmdHk-fOA-70">
          <mxGeometry x="158.5" y="33.5" width="56" height="29" as="geometry" />
        </mxCell>
        <mxCell id="hTJrPDFdSlXQmdHk-fOA-120" value="" style="shape=parallelogram;perimeter=parallelogramPerimeter;whiteSpace=wrap;html=1;fixedSize=1;flipH=1;rotation=-90;" vertex="1" parent="hTJrPDFdSlXQmdHk-fOA-70">
          <mxGeometry x="158.5" y="69" width="56" height="29" as="geometry" />
        </mxCell>
        <mxCell id="hTJrPDFdSlXQmdHk-fOA-121" value="" style="shape=parallelogram;perimeter=parallelogramPerimeter;whiteSpace=wrap;html=1;fixedSize=1;flipH=1;rotation=-90;" vertex="1" parent="hTJrPDFdSlXQmdHk-fOA-70">
          <mxGeometry x="158.5" y="105" width="56" height="29" as="geometry" />
        </mxCell>
        <mxCell id="hTJrPDFdSlXQmdHk-fOA-122" value="" style="shape=parallelogram;perimeter=parallelogramPerimeter;whiteSpace=wrap;html=1;fixedSize=1;flipH=1;rotation=-90;" vertex="1" parent="hTJrPDFdSlXQmdHk-fOA-70">
          <mxGeometry x="158.5" y="140.5" width="56" height="29" as="geometry" />
        </mxCell>
        <mxCell id="hTJrPDFdSlXQmdHk-fOA-123" value="" style="shape=parallelogram;perimeter=parallelogramPerimeter;whiteSpace=wrap;html=1;fixedSize=1;flipH=1;rotation=-90;" vertex="1" parent="hTJrPDFdSlXQmdHk-fOA-70">
          <mxGeometry x="158.5" y="176" width="56" height="29" as="geometry" />
        </mxCell>
        <mxCell id="hTJrPDFdSlXQmdHk-fOA-124" value="" style="shape=parallelogram;perimeter=parallelogramPerimeter;whiteSpace=wrap;html=1;fixedSize=1;flipH=1;rotation=-90;" vertex="1" parent="hTJrPDFdSlXQmdHk-fOA-70">
          <mxGeometry x="158.5" y="211.5" width="56" height="29" as="geometry" />
        </mxCell>
        <mxCell id="hTJrPDFdSlXQmdHk-fOA-125" value="" style="shape=parallelogram;perimeter=parallelogramPerimeter;whiteSpace=wrap;html=1;fixedSize=1;flipH=1;rotation=-90;" vertex="1" parent="hTJrPDFdSlXQmdHk-fOA-70">
          <mxGeometry x="158.5" y="247.5" width="56" height="29" as="geometry" />
        </mxCell>
        <mxCell id="hTJrPDFdSlXQmdHk-fOA-126" value="" style="shape=parallelogram;perimeter=parallelogramPerimeter;whiteSpace=wrap;html=1;fixedSize=1;flipH=1;rotation=-90;" vertex="1" parent="hTJrPDFdSlXQmdHk-fOA-70">
          <mxGeometry x="158.5" y="283" width="56" height="29" as="geometry" />
        </mxCell>
        <mxCell id="hTJrPDFdSlXQmdHk-fOA-127" value="" style="shape=parallelogram;perimeter=parallelogramPerimeter;whiteSpace=wrap;html=1;fixedSize=1;flipH=1;rotation=-90;" vertex="1" parent="hTJrPDFdSlXQmdHk-fOA-70">
          <mxGeometry x="187" y="13.5" width="56" height="29" as="geometry" />
        </mxCell>
        <mxCell id="hTJrPDFdSlXQmdHk-fOA-128" value="" style="shape=parallelogram;perimeter=parallelogramPerimeter;whiteSpace=wrap;html=1;fixedSize=1;flipH=1;rotation=-90;" vertex="1" parent="hTJrPDFdSlXQmdHk-fOA-70">
          <mxGeometry x="187" y="49" width="56" height="29" as="geometry" />
        </mxCell>
        <mxCell id="hTJrPDFdSlXQmdHk-fOA-129" value="" style="shape=parallelogram;perimeter=parallelogramPerimeter;whiteSpace=wrap;html=1;fixedSize=1;flipH=1;rotation=-90;" vertex="1" parent="hTJrPDFdSlXQmdHk-fOA-70">
          <mxGeometry x="187" y="85" width="56" height="29" as="geometry" />
        </mxCell>
        <mxCell id="hTJrPDFdSlXQmdHk-fOA-130" value="" style="shape=parallelogram;perimeter=parallelogramPerimeter;whiteSpace=wrap;html=1;fixedSize=1;flipH=1;rotation=-90;" vertex="1" parent="hTJrPDFdSlXQmdHk-fOA-70">
          <mxGeometry x="187" y="120.5" width="56" height="29" as="geometry" />
        </mxCell>
        <mxCell id="hTJrPDFdSlXQmdHk-fOA-131" value="" style="shape=parallelogram;perimeter=parallelogramPerimeter;whiteSpace=wrap;html=1;fixedSize=1;flipH=1;rotation=-90;" vertex="1" parent="hTJrPDFdSlXQmdHk-fOA-70">
          <mxGeometry x="187" y="156" width="56" height="29" as="geometry" />
        </mxCell>
        <mxCell id="hTJrPDFdSlXQmdHk-fOA-132" value="" style="shape=parallelogram;perimeter=parallelogramPerimeter;whiteSpace=wrap;html=1;fixedSize=1;flipH=1;rotation=-90;" vertex="1" parent="hTJrPDFdSlXQmdHk-fOA-70">
          <mxGeometry x="187" y="191.5" width="56" height="29" as="geometry" />
        </mxCell>
        <mxCell id="hTJrPDFdSlXQmdHk-fOA-133" value="" style="shape=parallelogram;perimeter=parallelogramPerimeter;whiteSpace=wrap;html=1;fixedSize=1;flipH=1;rotation=-90;" vertex="1" parent="hTJrPDFdSlXQmdHk-fOA-70">
          <mxGeometry x="187" y="227.5" width="56" height="29" as="geometry" />
        </mxCell>
        <mxCell id="hTJrPDFdSlXQmdHk-fOA-134" value="" style="shape=parallelogram;perimeter=parallelogramPerimeter;whiteSpace=wrap;html=1;fixedSize=1;flipH=1;rotation=-90;" vertex="1" parent="hTJrPDFdSlXQmdHk-fOA-70">
          <mxGeometry x="187" y="263" width="56" height="29" as="geometry" />
        </mxCell>
        <mxCell id="hTJrPDFdSlXQmdHk-fOA-135" value="&lt;span style=&quot;font-size: 18px;&quot;&gt;Source&lt;/span&gt;" style="rounded=0;whiteSpace=wrap;html=1;fontStyle=1;fontSize=18;strokeColor=none;fillColor=none;" vertex="1" parent="hTJrPDFdSlXQmdHk-fOA-70">
          <mxGeometry x="38.5" width="120" height="40" as="geometry" />
        </mxCell>
        <mxCell id="hTJrPDFdSlXQmdHk-fOA-136" value="f" style="ellipse;whiteSpace=wrap;html=1;fontStyle=3;fontSize=16;fontFamily=Georgia;fillColor=#999999;strokeColor=#314354;fontColor=#ffffff;" vertex="1" parent="1">
          <mxGeometry x="762.5" y="199.5" width="38.5" height="40" as="geometry" />
        </mxCell>
        <mxCell id="hTJrPDFdSlXQmdHk-fOA-137" value="" style="endArrow=classic;html=1;rounded=0;strokeWidth=2;exitX=1;exitY=0.5;exitDx=0;exitDy=0;entryX=0.75;entryY=1;entryDx=0;entryDy=0;strokeColor=#000000;" edge="1" parent="1" source="hTJrPDFdSlXQmdHk-fOA-136" target="hTJrPDFdSlXQmdHk-fOA-39">
          <mxGeometry width="50" height="50" relative="1" as="geometry">
            <mxPoint x="499" y="283.5" as="sourcePoint" />
            <mxPoint x="1030" y="283.5" as="targetPoint" />
          </mxGeometry>
        </mxCell>
        <mxCell id="hTJrPDFdSlXQmdHk-fOA-138" value="" style="endArrow=none;html=1;rounded=0;strokeWidth=3;" edge="1" parent="1">
          <mxGeometry width="50" height="50" relative="1" as="geometry">
            <mxPoint x="517" y="483.5" as="sourcePoint" />
            <mxPoint x="517" y="123.5" as="targetPoint" />
          </mxGeometry>
        </mxCell>
        <mxCell id="hTJrPDFdSlXQmdHk-fOA-139" value="" style="endArrow=none;html=1;rounded=0;strokeWidth=3;" edge="1" parent="1">
          <mxGeometry width="50" height="50" relative="1" as="geometry">
            <mxPoint x="1076.75" y="484.5" as="sourcePoint" />
            <mxPoint x="1076.75" y="124.5" as="targetPoint" />
          </mxGeometry>
        </mxCell>
        <mxCell id="hTJrPDFdSlXQmdHk-fOA-140" value="" style="endArrow=classic;html=1;rounded=0;strokeWidth=1;entryX=0;entryY=0.5;entryDx=0;entryDy=0;strokeColor=#000000;exitX=0.25;exitY=1;exitDx=0;exitDy=0;dashed=1;" edge="1" parent="1" source="hTJrPDFdSlXQmdHk-fOA-113" target="hTJrPDFdSlXQmdHk-fOA-136">
          <mxGeometry width="50" height="50" relative="1" as="geometry">
            <mxPoint x="499" y="280.5" as="sourcePoint" />
            <mxPoint x="773" y="229.5" as="targetPoint" />
          </mxGeometry>
        </mxCell>
        <mxCell id="hTJrPDFdSlXQmdHk-fOA-141" value="" style="endArrow=classic;html=1;rounded=0;strokeWidth=2;entryX=0;entryY=0.5;entryDx=0;entryDy=0;strokeColor=#CC0000;" edge="1" parent="1" source="hTJrPDFdSlXQmdHk-fOA-89" target="hTJrPDFdSlXQmdHk-fOA-136">
          <mxGeometry width="50" height="50" relative="1" as="geometry">
            <mxPoint x="712.5" y="433.5" as="sourcePoint" />
            <mxPoint x="762.5" y="383.5" as="targetPoint" />
          </mxGeometry>
        </mxCell>
        <mxCell id="hTJrPDFdSlXQmdHk-fOA-142" value="" style="shape=parallelogram;perimeter=parallelogramPerimeter;whiteSpace=wrap;html=1;fixedSize=1;flipH=1;rotation=-90;size=88.62000000000012;dashed=1;" vertex="1" parent="1">
          <mxGeometry x="397.94" y="553.5" width="228.62" height="120" as="geometry" />
        </mxCell>
        <mxCell id="hTJrPDFdSlXQmdHk-fOA-143" value="" style="shape=parallelogram;perimeter=parallelogramPerimeter;whiteSpace=wrap;html=1;fixedSize=1;flipH=1;rotation=-90;size=88.62000000000012;dashed=1;" vertex="1" parent="1">
          <mxGeometry x="407.94" y="563.5" width="228.62" height="120" as="geometry" />
        </mxCell>
        <mxCell id="hTJrPDFdSlXQmdHk-fOA-144" style="rounded=0;orthogonalLoop=1;jettySize=auto;html=1;entryX=0;entryY=1;entryDx=0;entryDy=0;strokeWidth=1;exitX=0.75;exitY=1;exitDx=0;exitDy=0;dashed=1;" edge="1" parent="1" source="hTJrPDFdSlXQmdHk-fOA-145" target="hTJrPDFdSlXQmdHk-fOA-136">
          <mxGeometry relative="1" as="geometry">
            <mxPoint x="737.9088736223514" y="736" as="sourcePoint" />
            <mxPoint x="810.31" y="430" as="targetPoint" />
          </mxGeometry>
        </mxCell>
        <mxCell id="hTJrPDFdSlXQmdHk-fOA-145" value="" style="shape=parallelogram;perimeter=parallelogramPerimeter;whiteSpace=wrap;html=1;fixedSize=1;flipH=1;rotation=-90;fillColor=#d5e8d4;strokeColor=#82b366;" vertex="1" parent="1">
          <mxGeometry x="494.24999999999994" y="623.5" width="56" height="29" as="geometry" />
        </mxCell>
        <mxCell id="hTJrPDFdSlXQmdHk-fOA-146" value="Multiple images can be input." style="text;html=1;align=center;verticalAlign=middle;resizable=0;points=[];autosize=1;strokeColor=none;fillColor=none;rotation=301;labelBackgroundColor=none;" vertex="1" parent="1">
          <mxGeometry x="564.06" y="380" width="180" height="30" as="geometry" />
        </mxCell>
      </root>
    </mxGraphModel>
  </diagram>
</mxfile>
